HIERARCHY
ROOT Root
{
  OFFSET 1.5094 12.0666 -2.80697
  CHANNELS 6 Xposition Yposition Zposition Zrotation Xrotation Yrotation
  JOINT Spine
  {
    OFFSET 5.3114 0 0
    CHANNELS 3 Zrotation Xrotation Yrotation
    JOINT Spine1
    {
      OFFSET 2.79004 0 0
      CHANNELS 3 Zrotation Xrotation Yrotation
      JOINT Neck
      {
        OFFSET 1.43377 0 0
        CHANNELS 3 Zrotation Xrotation Yrotation
        JOINT Head
        {
          OFFSET 1.86043 0 0
          CHANNELS 3 Zrotation Xrotation Yrotation
          End Site
          {
            OFFSET 0 0 0
          }
        }
      }
      JOINT LeftArm
      {
        OFFSET 0.0387506 0 2.55754
        CHANNELS 3 Zrotation Xrotation Yrotation
        JOINT LeftForeArm
        {
          OFFSET 4.24845 0 0
          CHANNELS 3 Zrotation Xrotation Yrotation
          JOINT LeftHand
          {
            OFFSET 4.01008 0 0
            CHANNELS 3 Zrotation Xrotation Yrotation
            End Site
            {
              OFFSET 0 0 0
            }
          }
        }
      }
      JOINT RightArm
      {
        OFFSET 0.0387506 0 -2.55754
        CHANNELS 3 Zrotation Xrotation Yrotation
        JOINT RightForeArm
        {
          OFFSET -4.24845 0 0
          CHANNELS 3 Zrotation Xrotation Yrotation
          JOINT RightHand
          {
            OFFSET -4.01009 0 0
            CHANNELS 3 Zrotation Xrotation Yrotation
            End Site
            {
              OFFSET 0 0 0
            }
          }
        }
      }
    }
  }
  JOINT LeftUpLeg
  {
    OFFSET -1.23318 0 2.05692
    CHANNELS 3 Zrotation Xrotation Yrotation
    JOINT LeftLeg
    {
      OFFSET 5.46397 0 0
      CHANNELS 3 Zrotation Xrotation Yrotation
      JOINT LeftFoot
      {
        OFFSET 4.68898 0 0
        CHANNELS 3 Zrotation Xrotation Yrotation
        End Site
        {
          OFFSET 0 0 0
        }
      }
    }
  }
  JOINT RightUpLeg
  {
    OFFSET -1.24454 0 -2.05007
    CHANNELS 3 Zrotation Xrotation Yrotation
    JOINT RightLeg
    {
      OFFSET -5.46397 0 0
      CHANNELS 3 Zrotation Xrotation Yrotation
      JOINT RightFoot
      {
        OFFSET -4.68901 0 0
        CHANNELS 3 Zrotation Xrotation Yrotation
        End Site
        {
          OFFSET 0 0 0
        }
      }
    }
  }
}
MOTION
Frames:	16
Frame Time:	0.0416667
1.5094 12.0666 -2.80697 -0 90 90 9.69808e-018 1.34041e-020 0.158382 1.41245e-030 7.06225e-031 2.48481e-017 -7.30747e-017 7.61111e-019 -1.19349 3.40995e-017 1.65719e-019 0.556895 -2.12238e-008 -1.53545e-005 -90.1584 -2.50273e-005 -2.47192e-012 6.55612e-006 1.52588e-005 -6.98387e-015 174.455 180 -4.60993e-005 -89.8417 -5.49628e-005 -2.25992e-011 3.612e-005 1.52588e-005 6.98387e-015 174.455 -0.0415391 0.000762865 179.202 -0.0716559 0.000399786 -0.879975 0.0301137 0.000244036 -178.322 174.829 0.105932 179.233 -11.1815 0.0637297 -0.863341 6.00911 0.0633224 -178.678 
1.50675 11.9209 -3.20332 -156.25 82.8194 -112.702 -5.59986 -1.36625 -2.93226 -1.10894 -0.450982 2.65578 -6.58861 -3.38561 -6.86584 -6.63074 -6.35999 8.16458 -27.0883 10.4902 -95.4197 22.1685 -0.736433 13.099 3.25483 22.0094 173.834 155.124 15.9982 -91.0158 22.0587 -0.750484 13.0339 1.16279 8.21693 174.373 -12.3751 -5.13098 -171.781 -35.9343 0.873255 -0.6701 22.3812 -11.2994 -176.511 168.688 -1.70995 -166.326 -38.5323 0.539222 -0.865784 27.5289 -18.0793 -174.433 
1.51239 11.9307 -3.17268 -156.926 83.3238 -112.114 -5.24994 -1.18178 -2.74162 -1.06945 -0.395391 2.48561 -6.07545 -3.14144 -6.46048 -6.08638 -5.88441 7.61275 -25.1909 9.49262 -95.6778 20.7539 -0.684926 12.2693 2.99529 20.3916 173.914 157.173 14.8795 -92.3397 20.6125 -0.6983 12.1855 1.08717 7.68837 174.381 -11.5717 -4.78529 -172.407 -33.6216 0.816285 -0.68357 20.9387 -10.6314 -176.605 169.119 -1.6823 -167.274 -36.6654 0.506791 -0.866966 26.0039 -16.9052 -174.739 
1.51431 11.9311 -3.16692 -157.601 83.3792 -111.44 -5.26543 -1.0995 -2.75595 -1.08702 -0.372587 2.49187 -6.03271 -3.11442 -6.41151 -5.89695 -5.81769 7.59179 -24.9118 9.58316 -95.605 20.8375 -0.668115 12.3191 2.94795 20.0849 173.927 157.437 14.9261 -92.3096 20.6684 -0.689358 12.2187 1.06497 7.53118 174.383 -11.4948 -4.75161 -172.423 -33.6359 0.816629 -0.683502 20.9821 -10.6883 -176.58 169.164 -1.74122 -167.269 -36.6374 0.50611 -0.86751 25.9792 -16.8923 -174.748 
1.51421 11.9316 -3.16489 -158.167 83.4419 -110.859 -5.29834 -1.04065 -2.79365 -1.09105 -0.356662 2.49691 -5.94537 -3.08427 -6.3761 -5.72222 -5.74138 7.60152 -24.9674 9.69023 -95.5374 20.8187 -0.673957 12.3078 2.94154 20.0692 173.929 157.503 14.9189 -92.3004 20.6912 -0.688094 12.2324 1.05983 7.51334 174.384 -11.4009 -4.7059 -172.451 -33.6266 0.816896 -0.683553 21.0191 -10.7355 -176.557 169.183 -1.75901 -167.23 -36.6541 0.505817 -0.867508 25.9555 -16.8302 -174.777 
1.51426 11.9322 -3.16401 -158.423 83.5039 -110.594 -5.32838 -1.0221 -2.8094 -1.09024 -0.353975 2.49622 -5.8612 -3.06977 -6.36397 -5.54663 -5.69665 7.62022 -25.0709 9.7812 -95.5149 20.7816 -0.682842 12.2856 2.93969 20.0654 173.929 157.62 14.9026 -92.3201 20.7172 -0.686014 12.2476 1.05858 7.51582 174.384 -11.3202 -4.661 -172.468 -33.6298 0.817514 -0.683428 21.0429 -10.752 -176.547 169.221 -1.76776 -167.204 -36.6734 0.505486 -0.867358 25.9435 -16.79 -174.794 
1.51517 11.9329 -3.16326 -158.221 83.5516 -110.803 -5.34715 -1.02323 -2.7834 -1.07902 -0.351849 2.47202 -5.78618 -3.07182 -6.36126 -5.4559 -5.68453 7.63609 -25.0064 9.8373 -95.5424 20.771 -0.68263 12.2791 2.9331 20.0028 173.933 157.759 14.8989 -92.3657 20.7436 -0.68411 12.2631 1.0463 7.40978 174.386 -11.2762 -4.6195 -172.447 -33.6576 0.818602 -0.683035 21.0612 -10.7089 -176.559 169.298 -1.77125 -167.219 -36.6671 0.504849 -0.867339 25.9533 -16.8093 -174.783 
1.51734 11.9334 -3.16234 -157.576 83.5694 -111.466 -5.34903 -1.05404 -2.72167 -1.0787 -0.358918 2.41915 -5.73541 -3.07215 -6.37903 -5.41027 -5.67598 7.66137 -24.9705 9.84652 -95.6114 20.752 -0.68675 12.2678 2.93554 20.0106 173.933 157.963 14.9084 -92.4339 20.7535 -0.684355 12.2691 1.02934 7.28316 174.388 -11.2787 -4.59328 -172.397 -33.6981 0.819965 -0.682485 21.0757 -10.6204 -176.588 169.38 -1.76254 -167.263 -36.6503 0.50417 -0.867339 25.9912 -16.8605 -174.753 
1.51708 11.9335 -3.16098 -156.683 83.5516 -112.367 -5.34155 -1.10134 -2.68964 -1.07946 -0.371466 2.36846 -5.72266 -3.0716 -6.41461 -5.37004 -5.66769 7.69166 -25.0357 9.81873 -95.7207 20.7348 -0.689643 12.2598 2.95113 20.132 173.929 158.124 14.9259 -92.4886 20.7671 -0.684298 12.277 1.0128 7.16486 174.39 -11.3193 -4.58289 -172.377 -33.71 0.821038 -0.682139 21.0589 -10.5246 -176.623 169.429 -1.73359 -167.276 -36.6497 0.503857 -0.867137 26.0542 -16.9098 -174.721 
1.51523 11.9334 -3.16617 -155.783 83.5142 -113.273 -5.29752 -1.15524 -2.66351 -1.11988 -0.386377 2.32269 -5.70625 -3.07156 -6.44048 -5.35933 -5.65093 7.70831 -24.9682 9.76934 -95.844 20.7374 -0.687884 12.2613 2.96129 20.2104 173.927 158.202 14.9181 -92.5253 20.785 -0.68358 12.2875 1.00367 7.10895 174.392 -11.3647 -4.60154 -172.366 -33.7129 0.822033 -0.681839 21.0431 -10.4541 -176.649 169.452 -1.69138 -167.283 -36.6457 0.503749 -0.866935 26.1032 -16.956 -174.694 
1.51403 11.9332 -3.17249 -154.908 83.4649 -114.157 -5.24426 -1.22189 -2.62842 -1.19129 -0.405619 2.29213 -5.65074 -3.07298 -6.47357 -5.36445 -5.63183 7.74556 -24.7121 9.73126 -95.9721 20.7842 -0.6809 12.2871 2.95429 20.1485 173.93 158.256 14.9036 -92.5428 20.8044 -0.680814 12.2995 1.00675 7.16349 174.392 -11.436 -4.66698 -172.344 -33.7133 0.822998 -0.681538 21.0187 -10.4138 -176.664 169.461 -1.62661 -167.302 -36.636 0.503892 -0.866778 26.1299 -16.978 -174.682 
1.51144 11.9327 -3.18066 -154.404 83.4121 -114.673 -5.16692 -1.25861 -2.61378 -1.24168 -0.415378 2.27671 -5.622 -3.07521 -6.50683 -5.39068 -5.6447 7.7786 -24.3931 9.67426 -96.0864 20.8329 -0.677551 12.3159 2.93983 20.0471 173.935 158.345 14.8866 -92.5676 20.8525 -0.676112 12.3274 1.00091 7.12136 174.394 -11.5268 -4.72814 -172.315 -33.7125 0.823909 -0.681234 20.9862 -10.3959 -176.675 169.412 -1.56075 -167.323 -36.6337 0.504529 -0.866571 26.1319 -16.9733 -174.686 
1.50763 11.9321 -3.19001 -154.319 83.3753 -114.772 -5.04994 -1.27254 -2.62132 -1.2456 -0.41821 2.26876 -5.65427 -3.08602 -6.51561 -5.42637 -5.67226 7.77642 -24.1417 9.61098 -96.1804 20.8681 -0.674175 12.3368 2.93083 19.9906 173.937 158.449 14.875 -92.6147 20.9079 -0.671842 12.3603 0.99109 7.03326 174.396 -11.6184 -4.77801 -172.288 -33.7119 0.824744 -0.680927 20.9554 -10.3931 -176.682 169.31 -1.50228 -167.337 -36.6602 0.506003 -0.866141 26.1054 -16.9333 -174.709 
1.50354 11.9315 -3.19972 -154.326 83.3437 -114.768 -4.92612 -1.28496 -2.64605 -1.2349 -0.420697 2.25302 -5.63824 -3.09568 -6.5029 -5.49971 -5.70607 7.72143 -24.0496 9.55086 -96.2491 20.8877 -0.674064 12.348 2.93067 20.0036 173.938 158.561 14.8669 -92.7258 20.969 -0.667107 12.3964 0.982478 6.95276 174.398 -11.705 -4.82086 -172.265 -33.7093 0.825439 -0.680642 20.9133 -10.4054 -176.686 169.177 -1.4056 -167.33 -36.7101 0.508514 -0.86556 26.0481 -16.8494 -174.757 
1.49923 11.9309 -3.20892 -154.269 83.3052 -114.805 -4.82478 -1.31019 -2.72462 -1.24327 -0.428871 2.22389 -5.54059 -3.10717 -6.49934 -5.54767 -5.71524 7.58993 -23.9917 9.51261 -96.2914 20.9037 -0.674636 12.3576 2.93047 20.0118 173.938 158.759 14.8271 -92.9064 21.0213 -0.661787 12.4274 0.970013 6.82713 174.4 -11.779 -4.85508 -172.276 -33.6795 0.825635 -0.680604 20.8519 -10.4126 -176.693 169.028 -1.27966 -167.28 -36.7918 0.51337 -0.864774 25.998 -16.7364 -174.818 
1.49449 11.9304 -3.21632 -154.18 83.2753 -114.881 -4.73734 -1.35985 -2.79543 -1.28244 -0.444006 2.19865 -5.37289 -3.11776 -6.46244 -5.62355 -5.70244 7.10559 -23.7672 9.49767 -96.3524 20.9641 -0.667751 12.3935 2.915 19.8831 173.944 158.941 14.7546 -93.0979 21.0582 -0.654766 12.4478 0.961091 6.73162 174.402 -11.83 -4.91158 -172.278 -33.6443 0.825568 -0.680637 20.7969 -10.4396 -176.693 168.919 -1.18781 -167.256 -36.8487 0.516979 -0.864328 25.9587 -16.66 -174.86 
